<?xml version="1.0" standalone="no"?>
<!DOCTYPE svg PUBLIC "-//W3C//DTD SVG 20010904//EN"
 "http://www.w3.org/TR/2001/REC-SVG-20010904/DTD/svg10.dtd">
<svg version="1.0" xmlns="http://www.w3.org/2000/svg"
 width="635.000000pt" height="800.000000pt" viewBox="0 0 635.000000 800.000000"
 preserveAspectRatio="xMidYMid meet">
<metadata>
Created by potrace 1.16, written by Peter Selinger 2001-2019
</metadata>
<g transform="translate(0.000000,800.000000) scale(0.100000,-0.100000)"
fill="#000000" stroke="none">
<path d="M5619 7960 c-44 -46 -47 -56 -19 -65 11 -3 34 -26 52 -51 l32 -45 33
38 c18 21 35 46 39 56 7 23 -41 86 -75 99 -20 7 -30 2 -62 -32z"/>
<path d="M4795 7873 c-27 -14 -52 -27 -54 -29 -2 -2 13 -22 33 -44 20 -22 36
-43 36 -48 0 -4 4 -13 9 -20 7 -11 16 -10 49 7 23 11 45 29 50 38 16 28 -16
91 -58 113 -9 5 -33 -1 -65 -17z"/>
<path d="M5450 7849 c-35 -14 -98 -77 -121 -121 -28 -54 -25 -94 10 -129 35
-35 52 -36 128 -8 79 29 131 66 167 116 l29 42 -47 56 c-45 52 -50 55 -94 54
-26 0 -58 -5 -72 -10z"/>
<path d="M4625 7805 c-50 -22 -86 -59 -138 -142 -54 -86 -21 -159 71 -157 93
1 184 73 203 160 12 51 11 53 -18 91 -58 73 -61 74 -118 48z"/>
<path d="M3720 7099 c-24 -11 -46 -22 -48 -24 -2 -2 10 -21 26 -42 17 -21 34
-50 37 -65 7 -26 7 -26 43 -11 79 32 89 69 36 132 -30 36 -35 37 -94 10z"/>
<path d="M4598 7038 c-44 -48 -46 -54 -17 -63 11 -4 34 -25 50 -48 17 -23 33
-41 36 -41 12 3 73 87 73 100 0 20 -57 81 -82 87 -17 5 -31 -4 -60 -35z"/>
<path d="M3547 7045 c-48 -16 -77 -43 -133 -119 -53 -70 -58 -113 -19 -151 44
-45 153 -28 230 37 18 16 37 47 49 81 l18 55 -38 55 c-42 61 -49 63 -107 42z"/>
<path d="M4443 6932 c-34 -5 -106 -74 -132 -127 -23 -45 -23 -51 -10 -89 9
-28 23 -45 44 -55 26 -13 36 -12 98 9 84 29 137 66 173 120 l27 40 -48 55
c-50 59 -59 62 -152 47z"/>
<path d="M2498 6543 c-33 -5 -34 -8 -8 -58 11 -22 20 -52 20 -67 0 -32 12 -34
72 -18 46 13 60 37 49 77 -21 74 -35 81 -133 66z"/>
<path d="M2284 6509 c-23 -11 -68 -44 -100 -73 -51 -46 -58 -57 -58 -91 0 -54
47 -95 109 -95 51 0 131 25 159 49 25 22 66 87 66 106 0 8 -11 39 -24 70 -25
54 -25 55 -68 55 -24 0 -62 -9 -84 -21z"/>
<path d="M3518 6380 l-37 -20 19 -33 c10 -17 22 -49 25 -69 4 -21 13 -38 19
-38 7 0 34 14 60 30 44 29 47 33 41 63 -9 45 -38 82 -66 84 -13 2 -41 -6 -61
-17z"/>
<path d="M3266 6334 c-53 -19 -103 -58 -122 -96 -13 -25 -14 -38 -5 -68 15
-49 42 -60 152 -60 93 0 127 9 178 49 l25 19 -20 67 c-19 66 -20 67 -69 86
-58 22 -86 23 -139 3z"/>
<path d="M1305 6295 c-5 -2 -22 -6 -37 -9 l-27 -6 24 -53 c14 -28 25 -62 25
-73 0 -21 2 -21 52 -10 69 15 82 44 50 111 -18 38 -26 45 -49 44 -16 0 -32 -2
-38 -4z"/>
<path d="M1090 6268 c-42 -12 -117 -65 -159 -114 -47 -53 -40 -112 16 -142 29
-16 119 -14 166 2 48 18 70 37 103 93 l25 44 -30 64 c-33 71 -43 76 -121 53z"/>
<path d="M134 6086 c-91 -46 -134 -88 -134 -132 0 -75 87 -116 200 -93 45 9
63 19 98 56 23 25 42 55 42 67 0 33 -29 119 -43 128 -29 18 -95 7 -163 -26z"/>
<path d="M360 6107 c0 -2 7 -18 16 -36 9 -17 16 -51 16 -76 l0 -44 51 6 c64 7
80 24 74 80 -7 63 -19 73 -93 73 -35 0 -64 -2 -64 -3z"/>
<path d="M2015 5873 c-16 -8 -31 -17 -33 -18 -2 -2 3 -14 11 -27 8 -12 18 -44
22 -70 3 -27 8 -48 10 -48 14 0 93 40 104 53 15 18 8 69 -15 105 -17 26 -55
29 -99 5z"/>
<path d="M1760 5851 c-83 -26 -140 -77 -140 -127 0 -73 33 -94 164 -101 83 -4
95 -3 136 19 52 28 57 46 38 123 -12 45 -18 52 -58 72 -46 22 -95 27 -140 14z"/>
<path d="M2635 5820 c-11 -4 -31 -20 -44 -34 -14 -14 -31 -26 -39 -26 -23 0
-182 -172 -182 -197 0 -6 -7 -16 -15 -23 -8 -7 -15 -19 -15 -26 0 -8 -12 -38
-26 -67 -14 -28 -43 -101 -65 -162 -22 -60 -49 -130 -60 -155 -11 -25 -24 -54
-29 -65 -4 -11 -19 -46 -34 -77 -27 -58 -33 -88 -17 -88 16 0 86 32 104 48 24
21 21 32 -8 32 -14 0 -25 5 -25 12 0 17 41 131 51 143 5 5 9 15 9 22 0 7 11
36 24 65 13 29 34 80 46 113 12 33 26 67 31 75 5 8 18 35 30 60 32 68 89 151
107 157 10 3 31 11 47 18 48 21 107 35 148 35 42 0 107 24 107 39 0 22 -25 67
-50 88 -26 23 -60 28 -95 13z"/>
<path d="M3868 5809 c-21 -11 -38 -24 -38 -29 0 -5 -15 -16 -32 -23 -39 -17
-178 -169 -178 -195 0 -5 -7 -15 -15 -22 -8 -7 -15 -18 -15 -26 0 -7 -18 -51
-40 -98 -22 -47 -40 -90 -40 -95 0 -12 -40 -118 -72 -191 -11 -25 -24 -54 -28
-65 -5 -11 -22 -49 -38 -85 -17 -36 -26 -69 -22 -74 16 -17 130 40 130 66 0 4
-11 8 -25 8 -14 0 -25 6 -25 13 1 16 35 119 48 143 6 10 32 73 57 139 26 66
51 127 56 135 5 8 20 39 34 67 48 102 73 132 128 157 67 31 123 46 169 46 41
0 89 16 99 32 11 17 -12 71 -40 95 -32 27 -65 28 -113 2z"/>
<path d="M779 5734 l-47 -14 14 -37 c7 -21 13 -55 14 -75 0 -21 4 -38 9 -38
20 0 97 32 106 44 16 21 6 92 -16 115 -23 24 -20 24 -80 5z"/>
<path d="M530 5730 c-114 -11 -170 -51 -170 -121 0 -68 48 -95 190 -106 65 -5
82 -2 118 16 l42 22 -6 67 c-7 71 -13 81 -74 111 -27 13 -50 15 -100 11z"/>
<path d="M1141 5634 c-13 -9 -37 -32 -55 -51 -25 -27 -48 -38 -118 -57 -59
-16 -99 -34 -127 -56 -38 -31 -53 -60 -32 -60 14 0 81 41 81 48 1 20 22 33 74
46 32 9 62 13 67 11 4 -3 -8 -49 -28 -103 -19 -53 -39 -114 -44 -135 -5 -22
-18 -55 -28 -75 -10 -21 -21 -50 -25 -67 -4 -16 -22 -50 -41 -74 -19 -24 -35
-48 -35 -53 0 -14 -100 -56 -152 -63 -39 -6 -49 -4 -67 14 -12 12 -21 34 -21
51 0 23 -5 30 -19 30 -19 0 -31 -25 -31 -68 0 -17 10 -28 43 -42 55 -25 82
-25 153 3 125 48 183 95 227 182 28 57 104 250 112 285 11 51 63 150 101 193
19 20 34 42 34 47 0 16 -43 12 -69 -6z"/>
<path d="M1989 5219 c-53 -60 -110 -163 -124 -228 -8 -35 11 -66 50 -81 41
-16 107 43 170 154 24 41 28 60 29 123 0 55 -3 76 -14 83 -32 21 -57 9 -111
-51z m71 -71 c-1 -18 -7 -44 -15 -58 -8 -14 -14 -34 -15 -46 0 -11 -9 -29 -20
-39 -11 -10 -20 -24 -20 -31 0 -23 -41 -28 -61 -7 -18 18 -18 20 4 73 45 112
127 181 127 108z"/>
<path d="M5599 5227 c-35 -30 -86 -80 -113 -111 -27 -31 -53 -56 -59 -56 -5 0
-3 7 4 16 15 19 35 52 44 74 4 8 11 23 16 32 5 10 9 31 9 47 0 40 -26 48 -59
18 -14 -14 -39 -28 -55 -31 -46 -11 -124 -101 -151 -176 -34 -94 -35 -98 -16
-122 18 -21 21 -21 73 -9 41 10 60 11 76 2 33 -18 59 -13 93 17 33 30 33 58
-1 47 -24 -8 -50 19 -43 45 3 11 9 20 14 20 5 0 38 29 74 65 63 62 95 80 95
52 0 -7 -4 -17 -8 -22 -5 -6 -17 -32 -27 -60 -10 -27 -28 -64 -41 -82 -23 -30
-33 -83 -16 -83 23 0 121 125 162 207 12 22 30 49 41 59 18 16 22 16 53 1 30
-14 36 -14 47 -1 10 12 8 17 -7 29 -48 38 -76 41 -88 9 -3 -8 -12 -14 -21 -14
-12 0 -15 9 -13 36 2 21 -2 39 -8 41 -7 2 -40 -21 -75 -50z m-210 -99 c6 -15
4 -35 -5 -57 -8 -18 -14 -43 -14 -55 0 -26 -51 -76 -79 -76 -11 0 -25 9 -31
19 -8 15 -5 25 14 48 12 15 26 40 29 54 6 25 58 89 71 89 4 0 10 -10 15 -22z"/>
<path d="M1737 5242 c-30 -31 -34 -70 -16 -136 8 -28 7 -46 -2 -70 -29 -73
-71 -85 -129 -36 -19 16 -40 30 -47 30 -34 0 -58 -95 -30 -118 6 -6 41 -8 76
-6 59 3 69 7 103 41 44 43 79 109 73 138 -13 65 -12 104 2 110 9 3 22 0 29 -6
8 -6 21 -8 30 -5 12 5 14 14 9 38 -13 56 -55 65 -98 20z"/>
<path d="M2425 5232 c-63 -57 -100 -114 -154 -235 -25 -57 -26 -73 -5 -81 31
-12 57 -5 114 29 32 19 62 35 68 35 8 0 46 51 60 83 2 4 -8 7 -22 7 -17 0 -29
-8 -38 -27 -15 -32 -75 -75 -97 -71 -49 10 -1 83 65 99 77 20 163 99 108 99
-14 0 -16 7 -11 39 9 70 -27 80 -88 23z"/>
<path d="M2688 5253 c-30 -19 -43 -58 -33 -102 4 -21 0 -42 -14 -68 -44 -83
-73 -152 -66 -162 10 -17 45 -13 51 7 3 9 19 44 34 77 16 33 32 72 35 87 9 37
80 100 108 96 33 -5 34 -48 3 -86 -15 -16 -26 -37 -26 -45 0 -9 -4 -18 -9 -22
-5 -3 -17 -25 -27 -50 -13 -36 -14 -48 -4 -60 16 -19 40 -2 40 28 0 11 10 34
23 51 13 17 36 54 52 83 17 31 44 63 67 78 59 39 66 21 25 -61 -85 -168 -82
-216 7 -163 42 24 45 32 14 27 -36 -5 -34 34 4 110 18 37 39 73 46 80 18 20
15 71 -5 79 -9 4 -33 -3 -54 -15 -50 -29 -58 -28 -70 8 -14 39 -42 47 -75 21
-34 -26 -60 -27 -74 -1 -13 24 -17 24 -52 3z"/>
<path d="M3128 5261 c-33 -7 -91 -58 -82 -72 4 -7 15 -2 29 11 23 21 55 19 55
-5 0 -11 -28 -78 -49 -115 -25 -45 -71 -147 -71 -157 0 -7 9 -17 19 -23 17 -9
24 -3 51 36 17 26 29 52 26 59 -17 44 83 185 130 185 25 0 40 -15 24 -25 -5
-3 -10 -17 -10 -29 0 -13 -7 -29 -15 -36 -8 -7 -15 -19 -15 -26 0 -8 -4 -22
-9 -32 -5 -9 -12 -24 -15 -32 -3 -8 -13 -24 -21 -36 -13 -18 -13 -23 -1 -40
14 -18 17 -17 65 31 48 47 62 77 42 89 -11 7 3 61 35 134 28 64 29 68 8 76
-16 6 -98 -27 -109 -44 -12 -19 -35 -10 -35 14 0 31 -18 44 -52 37z"/>
<path d="M3621 5216 c-56 -60 -55 -59 -41 -86 11 -20 -9 -99 -41 -162 -18 -35
-18 -38 -2 -47 19 -10 85 11 116 37 9 8 19 13 22 10 13 -13 -99 -272 -158
-364 -36 -58 -154 -109 -260 -113 -58 -2 -87 -17 -87 -43 0 -43 12 -63 48 -86
32 -21 41 -23 72 -13 19 6 50 24 68 41 18 16 39 30 46 30 15 0 117 111 163
179 18 25 35 58 38 73 4 15 11 30 16 33 5 4 9 13 9 22 0 9 6 24 13 32 8 9 28
59 46 111 18 52 41 110 52 128 10 18 19 39 19 46 0 7 9 21 20 31 11 10 20 26
20 35 0 9 13 41 29 70 30 56 29 90 -4 90 -21 0 -65 -74 -65 -109 0 -16 -4 -33
-10 -36 -5 -3 -10 -16 -10 -29 0 -32 -79 -106 -114 -106 -26 0 -27 2 -21 33 4
17 13 39 19 47 15 19 46 87 46 101 0 6 9 22 20 36 15 19 17 30 9 44 -5 10 -13
19 -18 19 -4 0 -31 -24 -60 -54z"/>
<path d="M4356 5243 c-33 -36 -39 -67 -23 -128 12 -42 11 -56 0 -85 -28 -67
-66 -76 -127 -30 -51 39 -64 38 -82 -5 -30 -73 5 -102 108 -89 43 6 52 12 93
61 49 60 61 99 51 173 -7 54 2 67 34 50 43 -23 62 36 22 68 -25 19 -49 14 -76
-15z"/>
<path d="M4572 5253 c-38 -18 -51 -55 -29 -78 14 -13 14 -19 -1 -56 -9 -23
-35 -63 -59 -89 -47 -52 -50 -60 -29 -60 8 0 17 -14 21 -31 4 -17 13 -33 19
-35 13 -5 76 26 108 54 15 13 18 12 24 -12 9 -36 36 -33 96 10 55 39 78 39 71
1 -7 -38 13 -41 62 -10 48 31 66 55 37 52 -39 -3 -41 0 -30 34 6 17 16 39 22
47 36 47 80 180 60 180 -24 0 -63 -52 -69 -92 -11 -63 -90 -153 -152 -172 -35
-11 -30 22 18 117 23 45 46 90 50 99 12 24 11 48 -2 48 -6 0 -27 -16 -46 -35
-31 -31 -34 -39 -29 -69 4 -19 3 -37 -2 -40 -5 -3 -12 -18 -16 -33 -6 -30 -72
-84 -132 -109 -49 -20 -53 -1 -15 67 17 30 34 61 37 69 21 51 36 80 44 85 6 3
10 22 10 41 0 39 -15 43 -68 17z"/>
<path d="M5077 5226 c-52 -51 -109 -134 -131 -193 -7 -21 -20 -53 -27 -71 -12
-28 -12 -34 1 -42 28 -18 65 -10 119 25 29 19 59 35 66 35 7 0 24 17 36 38 34
53 34 54 3 50 -18 -2 -33 -13 -43 -31 -18 -31 -67 -67 -93 -67 -26 0 -23 42 5
68 13 12 45 29 73 37 47 14 114 63 114 84 0 5 -8 11 -17 13 -14 3 -18 13 -18
48 0 63 -26 65 -88 6z"/>
<path d="M6165 5087 c-65 -67 -83 -122 -65 -198 12 -50 14 -52 77 -81 l65 -29
24 22 c44 41 66 104 72 199 4 85 4 89 -21 114 -19 19 -37 26 -63 26 -32 0 -45
-8 -89 -53z"/>
<path d="M6034 4770 c-35 -52 -27 -83 26 -110 21 -11 46 -20 54 -20 13 0 93
98 85 104 -2 1 -23 8 -46 16 -24 7 -50 21 -59 32 -24 25 -30 23 -60 -22z"/>
<path d="M5689 4463 c-87 -78 -110 -112 -123 -183 -6 -36 -6 -36 58 -70 l64
-34 43 19 c63 27 86 51 109 112 30 80 27 138 -9 174 -44 43 -77 39 -142 -18z"/>
<path d="M2457 4310 c-93 -32 -287 -213 -338 -315 -17 -33 -43 -82 -58 -110
-61 -112 -71 -132 -82 -180 -6 -27 -16 -61 -22 -75 -6 -14 -12 -36 -12 -50 -1
-14 -4 -34 -8 -46 -4 -12 -1 -28 7 -39 13 -18 15 -16 40 23 14 23 26 52 26 65
0 32 45 122 79 157 18 19 38 30 56 30 25 0 27 -3 20 -27 -3 -16 -17 -51 -31
-80 -13 -28 -24 -57 -24 -64 0 -7 -9 -23 -21 -35 -17 -19 -19 -26 -9 -44 12
-22 13 -21 68 34 50 49 55 58 45 75 -10 16 -8 30 8 77 11 32 27 71 36 87 17
34 11 57 -14 56 -19 0 -84 -33 -127 -63 -37 -26 -42 -15 -17 37 11 24 21 49
21 56 0 21 114 189 138 202 12 7 31 27 42 46 10 18 25 33 32 33 6 0 21 9 32
19 31 28 106 67 144 74 44 9 127 -18 146 -47 8 -13 16 -38 18 -56 4 -46 24
-48 38 -5 18 53 5 106 -33 136 -63 50 -118 58 -200 29z"/>
<path d="M3645 4228 c-11 -6 -40 -30 -65 -53 -37 -35 -60 -47 -125 -65 -86
-23 -104 -32 -149 -74 -19 -19 -25 -31 -18 -38 12 -12 54 12 92 53 21 23 90
49 129 49 13 0 14 -32 2 -45 -5 -6 -16 -37 -26 -70 -10 -33 -22 -64 -27 -70
-4 -5 -8 -19 -8 -32 0 -12 -11 -46 -24 -75 -14 -29 -32 -75 -42 -102 -9 -27
-24 -56 -33 -65 -9 -9 -24 -28 -33 -43 -33 -51 -197 -90 -227 -54 -7 8 -13 25
-15 38 -6 58 -38 56 -50 -4 -8 -42 13 -64 78 -78 46 -10 57 -9 119 14 111 43
182 98 221 174 25 49 116 280 116 295 0 27 66 155 99 193 42 47 33 78 -14 52z"/>
<path d="M5555 4178 c-41 -113 -40 -120 16 -148 69 -36 89 -26 113 52 l13 46
-34 5 c-19 4 -50 18 -69 32 -25 19 -35 23 -39 13z"/>
<path d="M1814 3938 c-60 -59 -94 -119 -94 -167 0 -14 -17 -53 -67 -157 -27
-56 -27 -101 0 -118 12 -8 22 -8 35 2 9 7 33 20 52 28 19 9 38 21 42 27 13 21
-4 28 -28 13 -13 -9 -33 -16 -45 -16 -17 0 -20 4 -15 23 4 12 8 29 10 37 2 9
13 31 25 50 11 19 28 51 38 70 21 42 41 59 69 60 22 0 64 38 64 58 0 7 -9 12
-20 12 -11 0 -20 6 -20 13 0 7 9 30 20 52 22 43 26 75 9 75 -6 0 -39 -28 -75
-62z"/>
<path d="M2708 3943 c-61 -59 -89 -107 -102 -176 -7 -40 -34 -100 -77 -177
-19 -34 -30 -40 -52 -29 -15 9 -17 17 -12 52 4 23 18 58 31 79 41 65 57 114
44 137 -13 26 -12 26 -56 -4 -20 -14 -45 -25 -54 -25 -26 0 -126 -113 -140
-157 -7 -21 -16 -42 -20 -48 -5 -5 -11 -26 -15 -46 -5 -27 -2 -40 10 -52 20
-21 33 -21 78 -2 31 13 39 13 76 -2 40 -16 43 -15 70 5 25 18 31 19 41 7 16
-20 35 -19 68 3 15 10 36 22 46 28 28 15 32 34 7 34 -12 0 -21 -4 -21 -10 0
-5 -12 -10 -26 -10 -25 0 -26 2 -19 38 4 20 12 44 18 52 11 13 22 33 61 105
16 28 38 44 63 45 12 0 31 12 42 26 21 27 20 44 -4 44 -25 0 -25 18 0 62 26
45 32 78 14 78 -6 0 -38 -26 -71 -57z m-275 -249 c-6 -76 -17 -111 -46 -141
-34 -36 -58 -41 -77 -18 -13 16 -10 26 19 75 5 8 15 28 22 43 18 40 57 79 72
74 6 -2 11 -17 10 -33z"/>
<path d="M4207 3825 c-15 -14 -37 -25 -48 -25 -23 0 -98 -72 -123 -117 -30
-56 -56 -126 -56 -154 0 -43 36 -57 90 -35 37 14 44 15 70 1 40 -21 54 -19 89
11 35 30 42 59 11 51 -36 -9 -51 13 -44 66 4 26 10 47 13 47 6 0 17 19 50 91
16 33 11 83 -9 86 -8 2 -28 -9 -43 -22z m-42 -114 c3 -11 -1 -36 -10 -56 -8
-21 -15 -47 -15 -59 0 -23 -50 -76 -72 -76 -38 0 -49 47 -18 75 11 10 20 26
20 35 0 23 57 100 74 100 8 0 17 -9 21 -19z"/>
<path d="M4387 3830 c-30 -23 -41 -59 -28 -93 8 -19 1 -41 -35 -113 -49 -100
-55 -134 -24 -134 15 0 29 19 59 83 21 45 42 93 46 107 11 36 70 90 100 90 21
0 25 -5 25 -31 0 -19 -10 -43 -25 -61 -14 -16 -25 -36 -25 -43 0 -8 -9 -30
-21 -49 -23 -40 -22 -79 3 -84 11 -2 18 7 23 30 4 18 17 47 30 63 12 17 32 49
43 72 32 62 122 130 122 91 0 -7 -15 -44 -34 -83 -62 -131 -70 -175 -31 -175
14 0 25 4 25 10 0 5 11 12 25 16 33 8 32 24 -1 24 -23 0 -25 3 -19 31 7 33 50
124 71 149 6 8 15 29 19 47 5 26 2 34 -14 42 -16 9 -27 6 -57 -14 -41 -28 -64
-32 -64 -11 0 8 -9 24 -19 37 l-20 24 -46 -25 -47 -25 -15 23 c-19 27 -33 28
-66 2z"/>
<path d="M5938 3725 c-34 -19 -68 -90 -75 -159 -5 -47 -2 -61 21 -100 42 -71
49 -76 125 -76 l68 0 17 58 c16 59 13 103 -12 187 -30 97 -77 126 -144 90z"/>
<path d="M5883 3305 c-9 -53 -9 -57 15 -76 16 -12 40 -19 69 -19 40 0 45 3 57
33 7 17 16 46 19 64 l6 31 -62 4 c-34 2 -69 7 -78 11 -13 6 -17 -3 -26 -48z"/>
<path d="M5161 3268 c-28 -24 -70 -57 -93 -73 -54 -39 -145 -172 -188 -275 -5
-14 -14 -32 -19 -40 -5 -8 -13 -26 -19 -40 -5 -14 -21 -49 -36 -78 -14 -30
-26 -60 -26 -67 0 -8 -28 -28 -62 -45 -59 -29 -77 -45 -160 -146 -48 -59 -74
-128 -59 -161 12 -26 25 -27 104 -7 21 5 34 1 51 -15 23 -21 25 -22 62 -6 40
16 74 42 74 56 0 4 -16 1 -35 -7 -19 -7 -39 -14 -45 -14 -20 0 -9 57 19 102
16 25 37 74 45 108 9 34 22 76 30 94 36 83 65 153 71 176 8 25 66 148 88 185
39 66 130 138 187 148 19 3 64 2 100 -2 78 -11 94 1 87 62 -9 64 -30 87 -82
87 -38 0 -52 -6 -94 -42z m-458 -715 c8 -13 -23 -96 -48 -129 -28 -37 -81 -62
-97 -46 -17 17 17 91 65 140 38 39 69 52 80 35z"/>
<path d="M5645 3041 c-30 -13 -130 -112 -148 -148 -9 -17 -19 -49 -23 -70 -6
-39 -5 -41 42 -70 71 -43 74 -43 134 -14 48 23 59 33 85 85 21 43 29 74 30
113 0 49 -3 57 -33 84 -33 30 -52 34 -87 20z"/>
<path d="M2246 2757 c-64 -63 -83 -97 -101 -187 -4 -19 -13 -42 -20 -50 -7 -8
-18 -32 -24 -52 -7 -20 -19 -42 -27 -48 -17 -15 -19 -81 -2 -98 14 -14 58 -16
58 -2 0 5 20 18 45 29 25 11 45 25 45 30 0 14 -37 14 -45 1 -3 -5 -18 -10 -31
-10 -24 0 -25 3 -19 33 4 17 18 50 31 72 13 22 31 54 40 70 25 46 45 65 69 65
12 0 32 11 44 24 24 25 21 46 -5 46 -19 0 -18 19 6 65 44 86 17 91 -64 12z"/>
<path d="M5449 2693 c-6 -16 -13 -45 -16 -65 -5 -34 -3 -37 35 -57 61 -31 90
-28 106 12 30 72 30 75 -8 86 -20 5 -49 19 -65 30 -37 27 -39 26 -52 -6z"/>
<path d="M1709 2697 c-36 -16 -99 -101 -99 -135 -1 -15 -8 -45 -16 -67 -16
-42 -19 -53 -32 -125 -5 -25 -14 -55 -20 -67 -7 -12 -12 -31 -12 -42 0 -12 -4
-29 -9 -39 -11 -21 -24 -54 -46 -111 -9 -25 -25 -57 -36 -72 -10 -15 -19 -35
-19 -44 0 -21 -52 -71 -94 -89 -72 -32 -97 -37 -186 -41 -109 -5 -137 -20
-105 -55 32 -35 162 -25 270 21 11 4 43 15 70 24 28 9 57 22 65 30 8 7 26 16
40 20 14 4 41 22 60 40 19 18 54 42 78 54 23 12 42 28 42 36 0 17 -21 20 -36
5 -5 -5 -36 -26 -68 -45 -65 -39 -103 -46 -91 -17 11 25 22 61 33 107 13 53
34 104 54 135 8 14 18 36 22 50 10 42 23 57 38 42 20 -20 62 -14 98 17 19 15
50 36 68 45 17 9 32 21 32 26 0 15 -12 12 -40 -10 -14 -11 -38 -20 -53 -20
-25 0 -27 2 -16 23 6 12 22 33 35 47 42 44 69 84 89 128 23 53 13 75 -36 82
-28 4 -34 9 -34 29 0 29 -11 33 -46 18z"/>
<path d="M3950 2685 c-13 -14 -31 -25 -40 -25 -19 0 -100 -82 -120 -121 -7
-13 -20 -32 -28 -42 -20 -22 -24 -44 -26 -129 -1 -73 -5 -79 -111 -163 -16
-13 -56 -48 -87 -77 -31 -29 -78 -69 -103 -88 -26 -19 -90 -80 -142 -135 -149
-155 -181 -219 -131 -265 33 -31 92 -25 240 26 63 22 168 87 168 104 0 4 21
24 48 42 36 27 51 46 66 86 10 29 22 55 27 58 14 8 45 82 58 137 7 27 23 70
36 95 13 26 27 61 29 78 10 57 46 119 91 154 49 39 57 55 21 46 -12 -3 -26 -3
-29 0 -3 3 9 31 27 62 21 38 39 58 56 62 36 8 37 47 2 88 l-28 32 -24 -25z
m-160 -415 c0 -10 -4 -21 -9 -24 -5 -3 -11 -20 -14 -38 -8 -52 -72 -229 -97
-268 -5 -8 -16 -28 -23 -45 -17 -36 -108 -120 -151 -139 -183 -82 -276 -85
-276 -11 0 43 152 217 250 286 30 21 111 90 180 153 69 62 128 112 133 109 4
-2 7 -13 7 -23z"/>
<path d="M1501 2634 c-17 -27 -31 -60 -32 -74 -2 -68 -78 -170 -125 -170 -25
0 -40 15 -24 25 5 3 10 17 10 29 0 13 7 29 15 36 8 7 15 21 15 31 0 10 5 21
10 24 6 3 10 16 10 27 0 12 9 32 21 44 20 22 20 64 -1 64 -15 0 -110 -104
-110 -121 0 -8 4 -19 9 -25 10 -10 -22 -114 -45 -149 -23 -33 -18 -55 14 -55
30 0 87 24 97 41 12 18 35 9 35 -13 1 -58 50 -61 108 -7 37 35 33 59 -5 29
-19 -15 -30 -17 -44 -10 -17 10 -17 12 6 61 13 28 28 56 34 62 6 6 11 17 11
24 0 7 15 40 32 73 l33 60 -22 21 -21 22 -31 -49z"/>
<path d="M2475 2610 c-55 -65 -100 -149 -119 -223 -5 -22 -1 -33 18 -52 40
-40 73 -33 131 28 70 75 105 147 105 220 0 73 -12 97 -48 97 -22 0 -40 -15
-87 -70z m81 -55 c2 -11 -3 -33 -11 -49 -8 -15 -17 -43 -21 -62 -3 -19 -10
-34 -15 -34 -5 0 -14 -11 -20 -24 -14 -29 -42 -38 -66 -21 -16 12 -16 16 2 71
35 104 122 183 131 119z"/>
<path d="M3346 2611 c-54 -64 -102 -154 -120 -224 -5 -21 -1 -33 18 -52 42
-42 76 -34 134 30 71 80 102 147 102 218 0 73 -12 97 -48 97 -22 0 -40 -15
-86 -69z m77 -53 c4 -12 0 -36 -8 -52 -8 -16 -15 -36 -15 -44 0 -23 -53 -100
-73 -105 -16 -5 -47 16 -47 31 2 29 41 115 69 150 38 46 66 54 74 20z"/>
<path d="M4133 2633 c-69 -79 -80 -96 -106 -160 -41 -101 -42 -117 -11 -142
45 -35 72 -28 131 36 29 31 53 61 53 66 0 5 9 22 21 38 25 35 38 154 20 187
-20 38 -60 29 -108 -25z m58 -70 c2 -29 -2 -57 -11 -68 -4 -5 -10 -22 -14 -37
-7 -30 -46 -95 -61 -101 -22 -10 -55 13 -55 37 0 14 4 27 9 30 4 3 11 19 15
36 3 17 22 51 43 75 38 46 72 59 74 28z"/>
<path d="M4365 2611 c-56 -67 -99 -148 -116 -220 -6 -29 -4 -37 18 -57 42 -39
73 -32 129 29 77 83 104 141 104 224 0 75 -9 93 -50 93 -19 0 -40 -17 -85 -69z
m85 -55 c0 -11 -7 -34 -15 -50 -8 -15 -15 -39 -15 -52 0 -13 -8 -32 -18 -42
-10 -10 -21 -25 -24 -34 -10 -24 -45 -28 -64 -7 -16 18 -16 22 -1 56 9 21 18
47 21 58 4 11 24 39 46 62 41 45 70 49 70 9z"/>
<path d="M2985 2662 c-25 -9 -85 -53 -85 -64 0 -13 22 -9 40 7 19 17 50 10 50
-11 0 -8 -13 -40 -29 -71 -16 -32 -44 -88 -62 -125 l-34 -67 22 -22 21 -22 28
44 c15 24 29 53 30 64 6 83 78 185 131 185 22 0 24 -3 18 -31 -4 -18 -18 -53
-31 -79 -13 -26 -24 -54 -24 -61 0 -7 -9 -23 -21 -35 -17 -18 -19 -26 -9 -43
11 -21 12 -20 60 20 53 45 68 72 51 93 -12 14 10 90 44 155 9 18 14 39 11 47
-7 18 -37 18 -62 -1 -10 -8 -25 -15 -32 -15 -7 0 -20 -7 -28 -15 -21 -20 -34
-19 -34 4 0 46 -13 56 -55 43z"/>
<path d="M2689 1922 c-67 -18 -130 -57 -149 -92 -8 -15 -4 -32 19 -78 25 -49
35 -60 62 -66 68 -13 114 -7 161 23 99 63 133 157 75 207 -34 29 -74 30 -168
6z"/>
<path d="M2443 1729 c-24 -22 -43 -45 -43 -50 0 -21 41 -89 61 -99 22 -12 49
0 96 43 l22 20 -23 18 c-13 10 -32 39 -42 64 -11 25 -21 45 -24 45 -3 0 -24
-19 -47 -41z"/>
<path d="M1550 1601 c-42 -9 -92 -34 -110 -56 -11 -13 -10 -26 5 -80 l17 -64
56 -21 c69 -26 110 -21 184 23 89 54 111 133 47 178 -28 20 -144 32 -199 20z"/>
<path d="M1327 1474 c-57 -29 -64 -43 -48 -93 17 -57 42 -76 83 -62 18 7 41
18 51 25 16 13 16 15 -3 57 -11 24 -20 56 -20 72 0 33 -2 33 -63 1z"/>
<path d="M2144 1421 c-64 -16 -118 -54 -141 -101 -29 -60 -28 -71 8 -136 l32
-55 41 7 c61 10 95 30 157 96 63 64 76 97 58 140 -20 50 -76 67 -155 49z"/>
<path d="M1866 1245 c-21 -7 -43 -18 -49 -24 -22 -22 23 -131 55 -131 5 0 34
7 63 16 l54 15 -30 47 c-16 25 -29 56 -29 69 0 26 -10 28 -64 8z"/>
<path d="M333 1185 c-78 -52 -119 -97 -137 -151 l-16 -48 27 -23 c69 -57 90
-65 130 -53 70 23 101 48 132 112 41 81 41 129 2 169 -39 39 -74 37 -138 -6z"/>
<path d="M1040 1081 c-45 -14 -105 -49 -128 -74 -13 -13 -30 -49 -37 -78 -14
-52 -14 -55 11 -90 14 -20 35 -46 48 -58 l23 -22 44 20 c24 10 58 34 76 52 40
43 103 147 103 171 0 27 -52 78 -85 83 -16 2 -41 0 -55 -4z"/>
<path d="M145 878 c-14 -29 -25 -59 -25 -65 0 -16 78 -73 100 -73 20 0 41 22
64 67 21 41 21 40 -16 52 -18 6 -48 25 -66 42 l-32 30 -25 -53z"/>
<path d="M762 847 c-67 -33 -67 -90 1 -140 24 -18 25 -18 76 7 28 15 51 29 51
32 0 4 -16 24 -35 45 -19 22 -35 46 -35 53 0 24 -13 25 -58 3z"/>
<path d="M272 408 c-55 -27 -108 -88 -116 -136 -12 -77 -9 -88 46 -136 l52
-45 39 22 c52 29 83 68 120 146 38 81 39 117 3 148 -34 29 -85 30 -144 1z"/>
<path d="M49 155 c-20 -13 -39 -30 -42 -38 -7 -18 16 -68 41 -90 30 -27 53
-24 105 13 l47 33 -38 28 c-21 15 -44 40 -50 54 -14 31 -18 31 -63 0z"/>
</g>
</svg>
