<?xml version="1.0" standalone="no"?>
<!DOCTYPE svg PUBLIC "-//W3C//DTD SVG 20010904//EN"
 "http://www.w3.org/TR/2001/REC-SVG-20010904/DTD/svg10.dtd">
<svg version="1.0" xmlns="http://www.w3.org/2000/svg"
 width="728.000000pt" height="746.000000pt" viewBox="0 0 728.000000 746.000000"
 preserveAspectRatio="xMidYMid meet">
<metadata>
Created by potrace 1.16, written by Peter Selinger 2001-2019
</metadata>
<g transform="translate(0.000000,746.000000) scale(0.100000,-0.100000)"
fill="#000000" stroke="none">
<path d="M3026 7339 c-11 -10 -15 -19 -9 -19 6 0 15 -15 18 -32 16 -74 72
-127 118 -112 21 7 67 96 67 131 0 12 5 25 10 28 24 15 -6 23 -92 23 -78 0
-96 -3 -112 -19z"/>
<path d="M2728 7192 c-21 -10 -47 -27 -59 -37 -54 -50 -64 -159 -24 -283 13
-42 32 -105 42 -140 17 -59 19 -63 43 -58 14 4 57 11 95 17 99 15 111 25 120
101 22 187 3 339 -49 387 -33 31 -118 37 -168 13z"/>
<path d="M2900 6655 c-7 -9 -15 -13 -18 -11 -2 3 -14 1 -25 -5 -10 -6 -40 -14
-66 -18 -46 -6 -46 -6 -55 -55 -15 -85 36 -153 113 -148 63 5 75 27 79 147 4
105 -1 122 -28 90z"/>
<path d="M3347 6570 c-15 -5 -36 -19 -47 -32 -24 -29 -49 -118 -57 -201 -6
-71 4 -149 16 -128 6 9 11 2 15 -21 11 -58 17 -61 72 -37 36 15 61 19 95 16
l47 -6 6 37 c15 86 19 259 7 295 -20 60 -91 96 -154 77z"/>
<path d="M3395 6088 c-87 -14 -85 -13 -85 -63 0 -62 37 -103 102 -111 48 -7
48 -6 63 29 8 20 15 64 15 97 0 67 7 64 -95 48z"/>
<path d="M2884 5864 c-44 -22 -58 -71 -52 -184 5 -83 9 -96 44 -153 44 -72 52
-79 79 -71 11 3 38 9 60 12 l40 7 3 120 c5 180 -14 243 -81 273 -36 16 -55 15
-93 -4z"/>
<path d="M2995 5439 c-27 -11 -63 -17 -79 -16 -28 4 -28 3 -22 -39 9 -67 35
-112 72 -124 44 -15 70 0 95 53 21 48 25 117 7 135 -14 14 -9 15 -73 -9z"/>
<path d="M3468 5323 c-32 -5 -70 -50 -87 -103 -6 -20 -12 -85 -14 -145 -2
-108 -2 -110 26 -137 23 -23 31 -26 53 -17 15 5 65 10 113 12 l86 2 -1 130
c-1 158 -11 196 -66 236 -40 28 -52 31 -110 22z"/>
<path d="M3570 4840 c-19 -5 -57 -10 -84 -12 -46 -3 -50 -5 -49 -28 0 -28 5
-40 39 -117 14 -34 29 -54 41 -54 87 -8 106 1 121 56 18 67 16 151 -4 159 -18
7 -17 7 -64 -4z"/>
<path d="M3110 4486 c-42 -14 -95 -88 -104 -145 -4 -28 -10 -40 -18 -35 -8 5
-9 -5 -4 -36 15 -92 72 -231 123 -298 22 -30 27 -32 42 -19 21 20 135 67 160
67 16 0 20 8 23 56 1 30 0 64 -4 75 -4 11 -21 69 -37 129 -48 180 -95 234
-181 206z"/>
<path d="M3290 3933 c-19 -9 -53 -19 -75 -22 -39 -6 -40 -7 -37 -41 4 -40 16
-66 46 -99 28 -31 56 -41 97 -32 36 7 36 8 55 124 8 43 -11 87 -35 86 -9 0
-32 -8 -51 -16z"/>
<path d="M3718 3898 c-16 -5 -28 -13 -28 -17 0 -5 -13 -25 -30 -46 -28 -36
-30 -43 -30 -129 0 -88 17 -167 50 -238 15 -32 16 -33 78 -13 26 8 72 16 102
17 l55 3 8 70 c8 72 5 208 -7 258 -19 83 -111 127 -198 95z"/>
<path d="M3828 3370 c-43 -9 -80 -15 -83 -12 -17 17 -21 -26 -8 -72 28 -94 68
-136 130 -136 49 0 66 20 66 76 -1 63 -14 164 -22 163 -3 0 -41 -9 -83 -19z"/>
<path d="M3430 3133 c-65 -12 -100 -68 -100 -159 0 -51 46 -147 112 -231 26
-35 44 -63 38 -63 -5 0 -10 -5 -10 -11 0 -6 7 -9 15 -5 8 3 21 -4 30 -17 l16
-22 -3 25 c-3 22 3 27 57 45 103 35 102 33 82 104 -9 33 -17 76 -17 94 0 18
-6 41 -13 52 -7 11 -19 40 -26 64 -23 81 -45 100 -144 125 -7 2 -23 1 -37 -1z"/>
<path d="M3625 2609 c-16 -10 -37 -17 -45 -14 -30 9 -43 -11 -37 -55 10 -76
84 -126 150 -101 31 12 33 31 14 125 -14 67 -31 77 -82 45z"/>
<path d="M4228 2618 c-47 -10 -94 -50 -108 -93 -24 -73 -12 -220 27 -330 14
-38 27 -80 30 -92 5 -22 23 -33 23 -14 0 5 30 19 68 31 70 24 142 58 154 75 4
6 8 0 8 -13 0 -14 4 -21 11 -16 6 3 9 15 6 25 -3 11 -1 19 4 19 11 0 3 93 -17
217 -17 98 -50 166 -88 178 -58 18 -84 21 -118 13z"/>
<path d="M4365 2091 c-38 -20 -74 -41 -80 -47 -5 -7 -22 -14 -37 -18 l-27 -6
28 -43 c38 -55 68 -82 109 -95 41 -14 61 -5 93 39 19 26 21 39 15 87 -3 32 -8
66 -10 77 -3 11 -5 26 -5 33 -1 16 -5 15 -86 -27z"/>
<path d="M4007 1809 c-67 -55 -84 -185 -36 -285 10 -22 47 -68 80 -101 54 -54
64 -60 76 -47 8 8 19 11 25 8 5 -3 19 2 31 13 12 10 38 27 57 37 19 11 38 24
42 30 15 21 8 72 -22 166 -37 120 -61 170 -80 170 -8 0 -24 7 -34 15 -10 8
-22 12 -27 10 -4 -3 -10 -1 -14 5 -12 20 -61 10 -98 -21z"/>
<path d="M4257 1373 c-16 -24 -41 -50 -57 -58 -25 -13 -39 -39 -40 -71 0 -7 9
-14 20 -17 11 -3 29 -21 40 -40 36 -60 126 -108 145 -77 3 6 20 10 37 10 l31
0 -5 83 c-4 62 -12 98 -33 141 -20 42 -30 54 -36 45 -8 -12 -11 -11 -19 1 -8
12 -12 13 -19 1 -7 -10 -11 -9 -22 7 -13 18 -15 17 -42 -25z"/>
<path d="M5000 1351 c-52 -11 -79 -32 -86 -68 -15 -80 23 -170 132 -313 120
-156 112 -148 128 -127 7 9 19 17 25 17 7 0 11 7 9 15 -3 16 62 124 75 125 5
0 16 7 24 16 15 15 15 19 0 48 -8 17 -28 58 -43 91 -31 66 -31 67 -91 133 -36
41 -100 75 -130 71 -5 -1 -24 -4 -43 -8z"/>
<path d="M5320 954 c0 -17 -5 -24 -15 -22 -15 3 -30 -17 -60 -80 -9 -18 -22
-35 -30 -38 -12 -5 -9 -14 14 -47 58 -84 75 -97 130 -97 46 0 52 3 66 30 23
45 19 68 -32 172 -50 101 -73 127 -73 82z"/>
<path d="M4911 596 c-51 -22 -76 -123 -47 -189 17 -39 141 -158 190 -181 19
-9 44 -28 55 -43 12 -14 21 -21 21 -14 0 6 5 11 11 11 5 0 8 -4 4 -9 -3 -5 0
-13 6 -17 11 -7 79 58 79 77 0 5 5 9 11 9 6 0 9 7 5 15 -3 9 2 20 13 27 20 12
18 43 -4 51 -6 3 -49 53 -94 112 -113 146 -176 184 -250 151z"/>
<path d="M5312 245 c-7 -8 -9 -15 -5 -15 4 0 3 -4 -3 -8 -6 -4 -28 -29 -49
-56 l-37 -49 18 -33 c50 -92 184 -61 184 43 0 36 -41 110 -67 122 -29 13 -25
14 -41 -4z"/>
</g>
</svg>
