<?xml version="1.0" standalone="no"?>
<!DOCTYPE svg PUBLIC "-//W3C//DTD SVG 20010904//EN"
 "http://www.w3.org/TR/2001/REC-SVG-20010904/DTD/svg10.dtd">
<svg version="1.0" xmlns="http://www.w3.org/2000/svg"
 width="570.000000pt" height="453.000000pt" viewBox="0 0 570.000000 453.000000"
 preserveAspectRatio="xMidYMid meet">
<metadata>
Created by potrace 1.16, written by Peter Selinger 2001-2019
</metadata>

<g transform="translate(0.000000,453.000000) scale(0.100000,-0.100000)"
fill="#000000" stroke="none">
<path d="M2750 3943 c-226 -16 -461 -79 -655 -176 -89 -44 -271 -166 -340
-228 -33 -29 -71 -62 -84 -73 -43 -38 -174 -200 -227 -281 -348 -536 -364
-1209 -44 -1770 94 -163 283 -375 440 -493 231 -173 510 -287 787 -323 116
-14 347 -14 452 0 624 89 1149 519 1355 1109 174 502 103 1062 -190 1494 -74
109 -88 125 -202 242 -312 317 -692 483 -1147 499 -55 2 -120 2 -145 0z m302
-89 c682 -88 1229 -597 1369 -1274 21 -100 24 -141 23 -320 0 -173 -4 -221
-23 -310 -77 -360 -265 -679 -531 -902 -119 -99 -198 -152 -329 -218 -443
-222 -976 -223 -1416 -3 -452 226 -760 625 -865 1118 -27 130 -37 363 -21 505
103 883 913 1518 1793 1404z"/>
<path d="M2191 3099 c-267 -45 -473 -349 -422 -624 35 -189 179 -334 377 -381
126 -29 256 -2 381 81 29 19 56 35 59 35 12 0 -5 -382 -20 -464 -28 -146 -86
-221 -192 -252 -121 -35 -275 5 -329 84 -32 46 -31 54 1 42 129 -49 254 74
223 219 -25 120 -143 175 -256 120 -114 -55 -146 -255 -62 -382 33 -51 112
-108 179 -133 107 -38 258 -26 368 29 102 51 215 180 293 336 135 270 141 671
14 940 -133 280 -336 396 -614 350z m261 -78 c92 -44 122 -125 134 -361 7
-153 -7 -302 -35 -365 -26 -58 -98 -120 -162 -139 -146 -44 -252 14 -300 164
-30 91 -39 408 -15 519 26 122 57 165 142 197 57 21 178 14 236 -15z"/>
<path d="M3438 3095 c-59 -22 -86 -44 -109 -92 -19 -39 -20 -49 -10 -84 23
-76 116 -90 142 -22 19 51 -8 99 -63 110 -64 13 6 65 96 71 59 4 66 2 97 -26
34 -30 34 -31 34 -120 0 -82 -2 -93 -25 -117 -23 -24 -28 -25 -91 -19 -74 7
-109 -5 -109 -37 0 -29 23 -33 81 -14 61 21 123 15 152 -13 13 -14 21 -38 24
-85 8 -96 -3 -152 -38 -192 -37 -42 -81 -52 -155 -36 -50 12 -114 51 -114 71
0 5 16 14 35 20 91 30 84 154 -8 154 -67 0 -100 -60 -78 -140 37 -139 289
-180 418 -69 49 41 67 89 61 155 -6 61 -36 103 -100 139 l-49 28 44 27 c32 18
52 39 67 72 20 41 21 50 10 87 -32 110 -190 177 -312 132z"/>
<path d="M3040 2265 l0 -35 488 3 487 2 3 33 3 32 -490 0 -491 0 0 -35z"/>
<path d="M3584 2112 c-19 -12 -313 -475 -308 -484 3 -4 61 -8 130 -8 l125 0
-3 -87 -3 -88 -67 2 c-53 1 -68 -2 -68 -13 0 -12 32 -14 190 -14 162 0 190 2
190 15 0 12 -14 15 -68 15 l-68 0 0 85 0 85 68 0 c66 0 68 1 68 25 0 24 -2 25
-68 25 l-68 0 3 207 c1 119 -2 214 -8 225 -10 19 -26 23 -45 10z m-54 -297 l0
-145 -101 0 c-90 0 -100 2 -95 17 16 41 171 273 183 273 10 0 13 -32 13 -145z"/>
</g>
</svg>
