<?xml version="1.0" ?><svg viewBox="0 0 64 64" xmlns="http://www.w3.org/2000/svg"><defs><style>.cls-1{fill:#919aa6;}.cls-2{fill:#6d737d;}.cls-3{fill:#96cc7f;}.cls-4{fill:#c0e0b2;}.cls-5{fill:#bfbfbf;}.cls-6{fill:#f2f2f2;}.cls-7{fill:none;stroke:#000;stroke-linejoin:round;stroke-width:2px;}</style></defs><title/><g data-name="Layer 20" id="Layer_20"><rect class="cls-1" height="4" width="6" x="16" y="2"/><rect class="cls-2" height="22" width="4" x="54" y="40"/><rect class="cls-2" height="4" width="8" x="52" y="36"/><polygon class="cls-1" points="62 36 49 36 23 62 2 62 2 44 18 44 44 18 62 18 62 36"/><polygon class="cls-2" points="18 44 2 44 2 48 19 48 45 22 62 22 62 18 44 18 18 44"/><rect class="cls-3" height="16" width="30" x="4" y="6"/><path class="cls-4" d="M4,6V19.569A24.31,24.31,0,0,0,8.5,20c10.132,0,18.455-6.144,19.405-14Z"/><polygon class="cls-5" points="21 12 26 12 26 10 30 14 26 18 26 16 21 16 21 12"/><path class="cls-6" d="M25.542,12H21v4h.565A16.752,16.752,0,0,0,25.542,12Z"/><path class="cls-6" d="M26,10v1.32c.17-.276.327-.558.477-.843Z"/><polygon class="cls-6" points="17 12 12 12 12 10 8 14 12 18 12 16 17 16 17 12"/><polygon class="cls-7" points="62 36 49 36 23 62 2 62 2 44 18 44 44 18 62 18 62 36"/><polyline class="cls-7" points="2 48 19 48 45 22 62 22"/><polyline class="cls-7" points="52 36 52 40 60 40 60 36"/><line class="cls-7" x1="54" x2="54" y1="40" y2="62"/><line class="cls-7" x1="58" x2="58" y1="40" y2="62"/><line class="cls-7" x1="51" x2="61" y1="62" y2="62"/><rect class="cls-7" height="16" width="30" x="4" y="6"/><line class="cls-7" x1="16" x2="16" y1="6" y2="2"/><line class="cls-7" x1="22" x2="22" y1="6" y2="2"/><line class="cls-7" x1="5" x2="33" y1="2" y2="2"/><polygon class="cls-7" points="17 12 12 12 12 10 8 14 12 18 12 16 17 16 17 12"/><polygon class="cls-7" points="21 12 26 12 26 10 30 14 26 18 26 16 21 16 21 12"/></g></svg>